<svg width="9" height="9" viewBox="0 0 9 9" fill="none" xmlns="http://www.w3.org/2000/svg">
<path d="M4.5 1.5C3.70435 1.5 2.94129 1.81607 2.37868 2.37868C1.81607 2.94129 1.5 3.70435 1.5 4.5C1.5 5.29565 1.81607 6.05871 2.37868 6.62132C2.94129 7.18393 3.70435 7.5 4.5 7.5C5.29565 7.5 6.05871 7.18393 6.62132 6.62132C7.18393 6.05871 7.5 5.29565 7.5 4.5C7.5 3.70435 7.18393 2.94129 6.62132 2.37868C6.05871 1.81607 5.29565 1.5 4.5 1.5V1.5ZM0.75 4.5C0.75 2.42888 2.42888 0.75 4.5 0.75C6.57112 0.75 8.25 2.42888 8.25 4.5C8.25 6.57112 6.57112 8.25 4.5 8.25C2.42888 8.25 0.75 6.57112 0.75 4.5Z" fill="white"/>
<path d="M4.5 3.75C4.59946 3.75 4.69484 3.78951 4.76516 3.85984C4.83549 3.93016 4.875 4.02554 4.875 4.125V6.375C4.875 6.47446 4.83549 6.56984 4.76516 6.64017C4.69484 6.71049 4.59946 6.75 4.5 6.75C4.40054 6.75 4.30516 6.71049 4.23483 6.64017C4.16451 6.56984 4.125 6.47446 4.125 6.375V4.125C4.125 4.02554 4.16451 3.93016 4.23483 3.85984C4.30516 3.78951 4.40054 3.75 4.5 3.75V3.75ZM5.0625 2.8125C5.0625 2.96168 5.00324 3.10476 4.89775 3.21025C4.79226 3.31574 4.64918 3.375 4.5 3.375C4.35082 3.375 4.20774 3.31574 4.10225 3.21025C3.99676 3.10476 3.9375 2.96168 3.9375 2.8125C3.9375 2.66332 3.99676 2.52024 4.10225 2.41475C4.20774 2.30926 4.35082 2.25 4.5 2.25C4.64918 2.25 4.79226 2.30926 4.89775 2.41475C5.00324 2.52024 5.0625 2.66332 5.0625 2.8125V2.8125Z" fill="white"/>
</svg>
