<svg width="160" height="37" viewBox="0 0 160 37" fill="none" xmlns="http://www.w3.org/2000/svg">
<rect x="4.625" y="3.08325" width="9.24998" height="32.3749" fill="white"/>
<rect x="10.792" width="7.70832" height="30.8333" fill="#8569FF"/>
<rect y="6.16675" width="7.70832" height="30.8333" fill="#8569FF"/>
<path d="M36.9756 9.51562V28H34.5635V9.51562H36.9756ZM42.917 9.51562V11.5215H28.6348V9.51562H42.917ZM51.9561 25.6514V18.5801C51.9561 18.0384 51.846 17.5687 51.626 17.1709C51.4144 16.7646 51.0928 16.4515 50.6611 16.2314C50.2295 16.0114 49.6963 15.9014 49.0615 15.9014C48.4691 15.9014 47.9486 16.0029 47.5 16.2061C47.0599 16.4092 46.7129 16.6758 46.459 17.0059C46.2135 17.3359 46.0908 17.6914 46.0908 18.0723H43.7422C43.7422 17.5814 43.8691 17.0947 44.123 16.6123C44.377 16.1299 44.7409 15.694 45.2148 15.3047C45.6973 14.9069 46.2728 14.5938 46.9414 14.3652C47.6185 14.1283 48.3717 14.0098 49.2012 14.0098C50.1999 14.0098 51.0801 14.179 51.8418 14.5176C52.612 14.8561 53.2129 15.3682 53.6445 16.0537C54.0846 16.7308 54.3047 17.5814 54.3047 18.6055V25.0039C54.3047 25.4609 54.3428 25.9476 54.4189 26.4639C54.5036 26.9801 54.6263 27.4245 54.7871 27.7969V28H52.3369C52.2184 27.7292 52.1253 27.3695 52.0576 26.9209C51.9899 26.4639 51.9561 26.0407 51.9561 25.6514ZM52.3623 19.6719L52.3877 21.3223H50.0137C49.3451 21.3223 48.7484 21.3773 48.2236 21.4873C47.6989 21.5889 47.2588 21.7454 46.9033 21.957C46.5479 22.1686 46.277 22.4352 46.0908 22.7568C45.9046 23.07 45.8115 23.4382 45.8115 23.8613C45.8115 24.293 45.9089 24.6865 46.1035 25.042C46.2982 25.3975 46.5902 25.681 46.9795 25.8926C47.3773 26.0957 47.8639 26.1973 48.4395 26.1973C49.1589 26.1973 49.7936 26.0449 50.3438 25.7402C50.8939 25.4355 51.3298 25.0632 51.6514 24.623C51.9814 24.1829 52.1592 23.7555 52.1846 23.3408L53.1875 24.4707C53.1283 24.8262 52.9674 25.2197 52.7051 25.6514C52.4427 26.083 52.0915 26.4977 51.6514 26.8955C51.2197 27.2848 50.7035 27.6107 50.1025 27.873C49.5101 28.127 48.8415 28.2539 48.0967 28.2539C47.1657 28.2539 46.349 28.0719 45.6465 27.708C44.9525 27.3441 44.4108 26.8574 44.0215 26.248C43.6406 25.6302 43.4502 24.9404 43.4502 24.1787C43.4502 23.4424 43.5941 22.7949 43.8818 22.2363C44.1696 21.6693 44.5843 21.1995 45.126 20.8271C45.6676 20.4463 46.3193 20.1585 47.0811 19.9639C47.8428 19.7692 48.6934 19.6719 49.6328 19.6719H52.3623ZM60.335 16.9932V28H57.9736V14.2637H60.208L60.335 16.9932ZM59.8525 20.6113L58.7607 20.5732C58.7692 19.6338 58.8919 18.7663 59.1289 17.9707C59.3659 17.1667 59.7171 16.4684 60.1826 15.876C60.6481 15.2835 61.2279 14.8265 61.9219 14.5049C62.6159 14.1748 63.4199 14.0098 64.334 14.0098C64.9772 14.0098 65.5697 14.1029 66.1113 14.2891C66.653 14.4668 67.1227 14.7503 67.5205 15.1396C67.9183 15.529 68.2272 16.0283 68.4473 16.6377C68.6673 17.2471 68.7773 17.9834 68.7773 18.8467V28H66.4287V18.9609C66.4287 18.2415 66.306 17.666 66.0605 17.2344C65.8236 16.8027 65.485 16.4896 65.0449 16.2949C64.6048 16.0918 64.0885 15.9902 63.4961 15.9902C62.8021 15.9902 62.2223 16.113 61.7568 16.3584C61.2913 16.6038 60.9189 16.9424 60.6396 17.374C60.3604 17.8057 60.1572 18.3008 60.0303 18.8594C59.9118 19.4095 59.8525 19.9935 59.8525 20.6113ZM68.752 19.3164L67.1777 19.7988C67.1862 19.0456 67.3089 18.3219 67.5459 17.6279C67.7913 16.9339 68.1426 16.3161 68.5996 15.7744C69.0651 15.2327 69.6364 14.8053 70.3135 14.4922C70.9906 14.1706 71.765 14.0098 72.6367 14.0098C73.373 14.0098 74.0247 14.1071 74.5918 14.3018C75.1673 14.4964 75.6497 14.7969 76.0391 15.2031C76.4368 15.6009 76.7373 16.113 76.9404 16.7393C77.1436 17.3656 77.2451 18.1104 77.2451 18.9736V28H74.8838V18.9482C74.8838 18.1781 74.7611 17.5814 74.5156 17.1582C74.2786 16.7266 73.9401 16.4261 73.5 16.2568C73.0684 16.0791 72.5521 15.9902 71.9512 15.9902C71.4349 15.9902 70.9779 16.0791 70.5801 16.2568C70.1823 16.4346 69.848 16.68 69.5771 16.9932C69.3063 17.2979 69.099 17.6491 68.9551 18.0469C68.8197 18.4447 68.752 18.8678 68.752 19.3164ZM80.7871 8.5H83.1484V25.334L82.9453 28H80.7871V8.5ZM92.4287 21.0176V21.2842C92.4287 22.2829 92.3102 23.2096 92.0732 24.0645C91.8363 24.9108 91.4893 25.6471 91.0322 26.2734C90.5752 26.8997 90.0166 27.3864 89.3564 27.7334C88.6963 28.0804 87.9388 28.2539 87.084 28.2539C86.2122 28.2539 85.4463 28.1058 84.7861 27.8096C84.1344 27.5049 83.5843 27.069 83.1357 26.502C82.6872 25.9349 82.3275 25.2493 82.0566 24.4453C81.7943 23.6413 81.6123 22.7357 81.5107 21.7285V20.5605C81.6123 19.5449 81.7943 18.6351 82.0566 17.8311C82.3275 17.027 82.6872 16.3415 83.1357 15.7744C83.5843 15.1989 84.1344 14.763 84.7861 14.4668C85.4378 14.1621 86.1953 14.0098 87.0586 14.0098C87.9219 14.0098 88.6878 14.179 89.3564 14.5176C90.0251 14.8477 90.5837 15.3216 91.0322 15.9395C91.4893 16.5573 91.8363 17.2979 92.0732 18.1611C92.3102 19.016 92.4287 19.9681 92.4287 21.0176ZM90.0674 21.2842V21.0176C90.0674 20.332 90.0039 19.6888 89.877 19.0879C89.75 18.4785 89.5469 17.9453 89.2676 17.4883C88.9883 17.0228 88.6201 16.6589 88.1631 16.3965C87.7061 16.1257 87.1432 15.9902 86.4746 15.9902C85.8822 15.9902 85.3659 16.0918 84.9258 16.2949C84.4941 16.498 84.126 16.7731 83.8213 17.1201C83.5166 17.4587 83.2669 17.848 83.0723 18.2881C82.8861 18.7197 82.7464 19.1683 82.6533 19.6338V22.6934C82.7887 23.2858 83.0088 23.8571 83.3135 24.4072C83.6266 24.9489 84.0413 25.3932 84.5576 25.7402C85.0824 26.0872 85.7298 26.2607 86.5 26.2607C87.1348 26.2607 87.6764 26.1338 88.125 25.8799C88.582 25.6175 88.9502 25.2578 89.2295 24.8008C89.5173 24.3438 89.7288 23.8148 89.8643 23.2139C89.9997 22.613 90.0674 21.9697 90.0674 21.2842ZM94.7773 21.2842V20.9922C94.7773 20.002 94.9212 19.0837 95.209 18.2373C95.4967 17.3825 95.9115 16.6419 96.4531 16.0156C96.9948 15.3809 97.6507 14.89 98.4209 14.543C99.1911 14.1875 100.054 14.0098 101.011 14.0098C101.976 14.0098 102.843 14.1875 103.613 14.543C104.392 14.89 105.052 15.3809 105.594 16.0156C106.144 16.6419 106.563 17.3825 106.851 18.2373C107.138 19.0837 107.282 20.002 107.282 20.9922V21.2842C107.282 22.2744 107.138 23.1927 106.851 24.0391C106.563 24.8854 106.144 25.626 105.594 26.2607C105.052 26.887 104.396 27.3779 103.626 27.7334C102.864 28.0804 102.001 28.2539 101.036 28.2539C100.071 28.2539 99.2038 28.0804 98.4336 27.7334C97.6634 27.3779 97.0033 26.887 96.4531 26.2607C95.9115 25.626 95.4967 24.8854 95.209 24.0391C94.9212 23.1927 94.7773 22.2744 94.7773 21.2842ZM97.126 20.9922V21.2842C97.126 21.9697 97.2064 22.6172 97.3672 23.2266C97.528 23.8275 97.7692 24.3607 98.0908 24.8262C98.4209 25.2917 98.8314 25.6598 99.3223 25.9307C99.8132 26.193 100.384 26.3242 101.036 26.3242C101.679 26.3242 102.242 26.193 102.725 25.9307C103.215 25.6598 103.622 25.2917 103.943 24.8262C104.265 24.3607 104.506 23.8275 104.667 23.2266C104.836 22.6172 104.921 21.9697 104.921 21.2842V20.9922C104.921 20.3151 104.836 19.6761 104.667 19.0752C104.506 18.4658 104.261 17.9284 103.931 17.4629C103.609 16.9889 103.203 16.6165 102.712 16.3457C102.229 16.0749 101.662 15.9395 101.011 15.9395C100.368 15.9395 99.8005 16.0749 99.3096 16.3457C98.8271 16.6165 98.4209 16.9889 98.0908 17.4629C97.7692 17.9284 97.528 18.4658 97.3672 19.0752C97.2064 19.6761 97.126 20.3151 97.126 20.9922ZM118.632 24.8262V14.2637H120.993V28H118.746L118.632 24.8262ZM119.076 21.9316L120.054 21.9062C120.054 22.8203 119.956 23.6667 119.762 24.4453C119.576 25.2155 119.271 25.8841 118.848 26.4512C118.424 27.0182 117.87 27.4626 117.185 27.7842C116.499 28.0973 115.665 28.2539 114.684 28.2539C114.015 28.2539 113.401 28.1566 112.843 27.9619C112.293 27.7673 111.819 27.4668 111.421 27.0605C111.023 26.6543 110.714 26.1253 110.494 25.4736C110.283 24.8219 110.177 24.0391 110.177 23.125V14.2637H112.525V23.1504C112.525 23.7682 112.593 24.2803 112.729 24.6865C112.872 25.0843 113.063 25.4017 113.3 25.6387C113.545 25.8672 113.816 26.028 114.112 26.1211C114.417 26.2142 114.73 26.2607 115.052 26.2607C116.05 26.2607 116.842 26.0703 117.426 25.6895C118.01 25.3001 118.429 24.7796 118.683 24.1279C118.945 23.4678 119.076 22.7357 119.076 21.9316ZM126.922 16.4219V28H124.573V14.2637H126.858L126.922 16.4219ZM131.213 14.1875L131.2 16.3711C131.006 16.3288 130.819 16.3034 130.642 16.2949C130.472 16.278 130.278 16.2695 130.058 16.2695C129.516 16.2695 129.038 16.3542 128.623 16.5234C128.208 16.6927 127.857 16.9297 127.569 17.2344C127.282 17.5391 127.053 17.903 126.884 18.3262C126.723 18.7409 126.617 19.1979 126.566 19.6973L125.906 20.0781C125.906 19.2487 125.987 18.4701 126.147 17.7422C126.317 17.0143 126.575 16.3711 126.922 15.8125C127.269 15.2454 127.709 14.8053 128.242 14.4922C128.784 14.1706 129.427 14.0098 130.172 14.0098C130.341 14.0098 130.536 14.0309 130.756 14.0732C130.976 14.1071 131.128 14.1452 131.213 14.1875ZM135.936 14.2637V28H133.574V14.2637H135.936ZM133.396 10.6201C133.396 10.2393 133.511 9.91764 133.739 9.65527C133.976 9.3929 134.323 9.26172 134.78 9.26172C135.229 9.26172 135.572 9.3929 135.809 9.65527C136.054 9.91764 136.177 10.2393 136.177 10.6201C136.177 10.984 136.054 11.2972 135.809 11.5596C135.572 11.8135 135.229 11.9404 134.78 11.9404C134.323 11.9404 133.976 11.8135 133.739 11.5596C133.511 11.2972 133.396 10.984 133.396 10.6201ZM142.055 17.1963V28H139.706V14.2637H141.928L142.055 17.1963ZM141.496 20.6113L140.519 20.5732C140.527 19.6338 140.667 18.7663 140.938 17.9707C141.208 17.1667 141.589 16.4684 142.08 15.876C142.571 15.2835 143.155 14.8265 143.832 14.5049C144.518 14.1748 145.275 14.0098 146.104 14.0098C146.782 14.0098 147.391 14.1029 147.933 14.2891C148.474 14.4668 148.936 14.7546 149.316 15.1523C149.706 15.5501 150.002 16.0664 150.205 16.7012C150.408 17.3275 150.51 18.0934 150.51 18.999V28H148.148V18.9736C148.148 18.2542 148.043 17.6787 147.831 17.2471C147.619 16.807 147.311 16.4896 146.904 16.2949C146.498 16.0918 145.999 15.9902 145.406 15.9902C144.822 15.9902 144.289 16.113 143.807 16.3584C143.333 16.6038 142.922 16.9424 142.575 17.374C142.237 17.8057 141.97 18.3008 141.775 18.8594C141.589 19.4095 141.496 19.9935 141.496 20.6113Z" fill="white"/>
<path d="M154.115 26.7559C154.115 26.3581 154.238 26.0238 154.483 25.7529C154.737 25.4736 155.101 25.334 155.575 25.334C156.049 25.334 156.409 25.4736 156.654 25.7529C156.908 26.0238 157.035 26.3581 157.035 26.7559C157.035 27.1452 156.908 27.4753 156.654 27.7461C156.409 28.0169 156.049 28.1523 155.575 28.1523C155.101 28.1523 154.737 28.0169 154.483 27.7461C154.238 27.4753 154.115 27.1452 154.115 26.7559Z" fill="#8569FF"/>
</svg>
