<svg width="100" height="37" viewBox="0 0 100 37" fill="none" xmlns="http://www.w3.org/2000/svg">
<rect x="4.62503" y="3.08325" width="9.24998" height="32.3749" fill="white"/>
<rect x="10.792" width="7.70832" height="30.8333" fill="#8569FF"/>
<rect y="6.16673" width="7.70832" height="30.8333" fill="#8569FF"/>
<path d="M32.583 20.7637V28H30.1455V9.51562H36.9629C38.9857 9.51562 40.5684 10.0319 41.7109 11.0645C42.862 12.097 43.4375 13.4639 43.4375 15.165C43.4375 16.9593 42.8747 18.3431 41.749 19.3164C40.6318 20.2812 39.028 20.7637 36.9375 20.7637H32.583ZM32.583 18.7705H36.9629C38.2663 18.7705 39.265 18.4658 39.959 17.8564C40.653 17.2386 41 16.3499 41 15.1904C41 14.0902 40.653 13.21 39.959 12.5498C39.265 11.8896 38.3128 11.5469 37.1025 11.5215H32.583V18.7705ZM48.7314 28H46.3828V8.5H48.7314V28ZM51.8799 21.0049C51.8799 19.6592 52.1423 18.4489 52.667 17.374C53.2002 16.2992 53.9365 15.4697 54.876 14.8857C55.8239 14.3018 56.903 14.0098 58.1133 14.0098C59.9837 14.0098 61.4945 14.6572 62.6455 15.9521C63.805 17.2471 64.3848 18.9694 64.3848 21.1191V21.2842C64.3848 22.6214 64.1266 23.8232 63.6104 24.8896C63.1025 25.9476 62.3704 26.7728 61.4141 27.3652C60.4661 27.9577 59.3743 28.2539 58.1387 28.2539C56.2767 28.2539 54.766 27.6064 53.6064 26.3115C52.4554 25.0166 51.8799 23.3027 51.8799 21.1699V21.0049ZM54.2412 21.2842C54.2412 22.8076 54.5924 24.0306 55.2949 24.9531C56.0059 25.8757 56.9538 26.3369 58.1387 26.3369C59.332 26.3369 60.2799 25.8714 60.9824 24.9404C61.6849 24.001 62.0361 22.6891 62.0361 21.0049C62.0361 19.4984 61.6764 18.2796 60.957 17.3486C60.2461 16.4092 59.2982 15.9395 58.1133 15.9395C56.9538 15.9395 56.0186 16.4007 55.3076 17.3232C54.5967 18.2458 54.2412 19.5661 54.2412 21.2842ZM69.5518 14.2637L69.6279 15.9902C70.6774 14.6699 72.0485 14.0098 73.7412 14.0098C76.6442 14.0098 78.1084 15.6475 78.1338 18.9229V28H75.7852V18.9102C75.7767 17.9199 75.5482 17.1878 75.0996 16.7139C74.6595 16.2399 73.9697 16.0029 73.0303 16.0029C72.2686 16.0029 71.5999 16.2061 71.0244 16.6123C70.4489 17.0186 70.0003 17.5518 69.6787 18.2119V28H67.3301V14.2637H69.5518ZM85.5098 21.6396L84.0371 23.1758V28H81.6885V8.5H84.0371V20.2939L85.2939 18.7832L89.5723 14.2637H92.4287L87.084 20.002L93.0508 28H90.2959L85.5098 21.6396Z" fill="white"/>
<path d="M94.9043 26.7686C94.9043 26.3623 95.0228 26.0238 95.2598 25.7529C95.5052 25.4821 95.8691 25.3467 96.3516 25.3467C96.834 25.3467 97.1979 25.4821 97.4434 25.7529C97.6973 26.0238 97.8242 26.3623 97.8242 26.7686C97.8242 27.1579 97.6973 27.4837 97.4434 27.7461C97.1979 28.0085 96.834 28.1396 96.3516 28.1396C95.8691 28.1396 95.5052 28.0085 95.2598 27.7461C95.0228 27.4837 94.9043 27.1579 94.9043 26.7686Z" fill="#8569FF"/>
</svg>
